<svg xmlns="http://www.w3.org/2000/svg" xmlns:svg="http://www.w3.org/2000/svg" id="svg8" width="100mm" height="100mm" version="1.1" viewBox="0 0 100 100"><metadata id="metadata5"/><g id="g3801"><g id="layer1" transform="translate(-0.42372881,-192.76271)"><flowRoot style="font-style:normal;font-weight:400;font-size:40px;line-height:1.25;font-family:sans-serif;letter-spacing:0;word-spacing:0;fill:#000;fill-opacity:1;stroke:none" id="flowRoot4518" transform="matrix(0.26458333,0,0,0.26458333,0,197)" xml:space="preserve"><flowRegion id="flowRegion4520"><rect id="rect4522" width="230" height="210" x="88.571" y="83.667"/></flowRegion><flowPara id="flowPara4524"/></flowRoot><flowRoot style="font-style:normal;font-weight:400;font-size:40px;line-height:1.25;font-family:sans-serif;letter-spacing:0;word-spacing:0;fill:#000;fill-opacity:1;stroke:none" id="flowRoot4526" xml:space="preserve"><flowRegion id="flowRegion4528"><rect id="rect4530" width="302.857" height="260" x="51.429" y="73.667"/></flowRegion><flowPara id="flowPara4532"/></flowRoot><flowRoot style="font-style:normal;font-weight:400;font-size:40px;line-height:1.25;font-family:sans-serif;letter-spacing:0;word-spacing:0;fill:#000;fill-opacity:1;stroke:none" id="flowRoot4534" xml:space="preserve"><flowRegion id="flowRegion4536"><rect id="rect4538" width="294.286" height="270" x="47.143" y="56.524"/></flowRegion><flowPara id="flowPara4540"/></flowRoot><g id="g4607" transform="matrix(1.1658951,0,0,1.3712418,-10.328286,-93.78712)"><g id="flowRoot4562" aria-label="}" transform="matrix(0.26458333,0,0,0.26458333,-11.32912,189.97166)" style="font-style:normal;font-weight:400;font-size:40px;line-height:1.25;font-family:sans-serif;letter-spacing:0;word-spacing:0;fill:#000;fill-opacity:1;stroke:none"><path style="font-style:normal;font-variant:normal;font-weight:400;font-stretch:normal;font-size:192px;font-family:Gravity;-inkscape-font-specification:'Gravity, Normal';font-variant-ligatures:normal;font-variant-caps:normal;font-variant-numeric:normal;font-feature-settings:normal;text-align:start;writing-mode:lr-tb;text-anchor:start" id="path3841" d="m 311.36295,293.95111 h 6.5625 q 13.125,0 17.0625,-4.03125 4.03125,-4.03125 4.03125,-17.4375 v -23.25 q 0,-14.625 4.21875,-21.28125 4.21875,-6.65625 14.625,-9.1875 -10.40625,-2.34375 -14.625,-9 -4.21875,-6.65625 -4.21875,-21.375 v -23.25 q 0,-13.3125 -4.03125,-17.34375 -3.9375,-4.125 -17.0625,-4.125 h -6.5625 v -13.40625 h 5.90625 q 23.34375,0 31.125,6.9375 7.875,6.84375 7.875,27.5625 v 22.5 q 0,13.96875 5.0625,19.40625 5.0625,5.34375 18.375,5.34375 h 5.8125 v 13.40625 h -5.8125 q -13.3125,0 -18.375,5.4375 -5.0625,5.4375 -5.0625,19.59375 v 22.40625 q 0,20.71875 -7.875,27.65625 -7.78125,6.9375 -31.125,6.9375 h -5.90625 z m 12.84322,-138.47983 v 18.46875 q -10.78125,-5.15625 -20.34375,-7.6875 -9.5625,-2.53125 -18.46875,-2.53125 -15.46875,0 -23.90625,6 -8.34375,6 -8.34375,17.0625 0,9.28125 5.53125,14.0625 5.625,4.6875 21.1875,7.59375 l 11.4375,2.34375 q 21.1875,4.03125 31.21875,14.25 10.125,10.125 10.125,27.1875 0,20.34375 -13.6875,30.84375 -13.59375,10.5 -39.9375,10.5 -9.9375,0 -21.1875,-2.25 -11.15625,-2.25 -23.15625,-6.65625 v -19.5 q 11.53125,6.46875 22.59375,9.75 11.0625,3.28125 21.75,3.28125 16.21875,0 25.03125,-6.375 8.8125,-6.375 8.8125,-18.1875 0,-10.3125 -6.375,-16.125 -6.28125,-5.8125 -20.71875,-8.71875 l -11.53125,-2.25 q -21.1875,-4.21875 -30.65625,-13.21875 -9.46875,-9 -9.46875,-25.03125 0,-18.5625 13.03125,-29.25 13.125,-10.6875 36.09375,-10.6875 9.84375,0 20.0625,1.78125 10.21875,1.78125 20.90625,5.34375 z m -172.47794,-7.16523 h 18.9375 v 124.03124 h 68.15625 v 15.9375 h -87.09375 z m 15.01597,144.9303 v 13.49998 h -5.8125 q -23.34375,0 -31.3125,-6.93751 -7.875,-6.93748 -7.875,-27.65624 v -22.40625 q 0,-14.15626 -5.0625,-19.59375 -5.0625,-5.4375 -18.375003,-5.4375 H 92.58795 v -13.40624 h 5.718747 q 13.406253,0 18.375003,-5.34377 5.0625,-5.43749 5.0625,-19.40624 v -22.49999 q 0,-20.71876 7.875,-27.5625 7.96875,-6.93751 31.3125,-6.93751 h 5.8125 v 13.40624 h -6.375 q -13.21875,0 -17.25,4.12502 -4.03125,4.12501 -4.03125,17.34376 v 23.24999 q 0,14.71877 -4.3125,21.375 -4.21875,6.65624 -14.53125,9.00001 10.40625,2.53122 14.625,9.1875 4.21875,6.65624 4.21875,21.28123 v 23.24999 q 0,13.21875 4.03125,17.34376 4.03125,4.12502 17.25,4.12502 z"/></g></g></g></g></svg>